<svg xmlns:svg="http://www.w3.org/2000/svg" xmlns="http://www.w3.org/2000/svg" xmlns:xlink="http://www.w3.org/1999/xlink" xmlns:inkscape="http://www.inkscape.org/namespaces/inkscape" width="2102.8154296875" height="1024.0" id="svgoverlay" version="1.1">
  <defs id="defs4">
    <clipPath id="edgeclip">
      <path id="clippath" d="M1082.128296 691.570312 L1083.644043 698.114990, 1085.059326 705.727417, 1087.133545 717.077515, 1088.794922 723.541504, 1090.973511 732.879395, 1091.883179 738.291626, 1092.483032 746.275696, 1093.791504 752.792603, 1092.778687 753.346375, 1093.068604 759.525146, 1093.495972 764.371643, 1093.806274 769.401001, 1093.812988 775.277649, 1093.679321 779.843811, 1093.669312 784.845459, 1093.596191 787.965393, 1093.245239 791.541809, 1093.153320 795.218140, 1092.272949 798.671326, 1091.912720 801.608521, 1091.389160 804.821594, 1091.230957 808.250000, 1091.644409 810.181519, 1090.597046 812.022522, 1090.316040 815.179932, 1090.207642 818.494629, 1090.292358 821.856750, 1090.810425 825.419678, 1091.984497 828.810974, 1094.133179 831.325745, 1096.062378 832.624512, 1097.300293 835.205566, 1099.285767 837.815735, 1101.629517 840.453308, 1104.354492 842.597290, 1106.893311 845.104004, 1109.514648 848.719055, 1111.179565 852.060669, 1113.821655 857.184204, 1116.080933 860.884888, 1118.135254 862.697754, 1120.289062 865.309692, 1122.184448 867.856567, 1123.646729 872.099609, 1126.052490 875.931519, 1127.963745 879.259460, 1130.087036 882.751282, 1132.820068 885.397156, 1134.323853 887.545532, 1136.751221 890.767578, 1139.406738 894.275452, 1142.538818 897.963379, 1146.492432 901.322021, 1150.334351 904.766663, 1154.727661 908.486145, 1158.902222 911.395935, 1163.733276 913.854248, 1167.509399 917.124390, 1171.576172 919.779541, 1174.887451 921.935913, 1178.710693 923.358643, 1181.706299 925.382263, 1186.118530 927.672852, 1190.387329 930.231934, 1194.689819 931.963257, 1199.004639 933.472107, 1203.265625 935.157471, 1208.313354 936.378845, 1211.740356 938.692078, 1215.381592 940.643494, 1218.367676 941.015381, 1221.854492 941.687134, 1224.866943 942.628906, 1225.769531 944.539001, 1228.646851 946.038879, 1231.849854 947.297485, 1235.086792 948.258118, 1238.689331 948.321655, 1241.609741 949.133423, 1243.972046 950.113403, 1246.731445 949.324585, 1247.771851 951.150146, 1249.860962 952.180542, 1252.335815 953.075806, 1253.646606 954.259949, 1254.784790 955.708862, 1255.917114 957.069580, 1257.371460 958.540771, 1258.970947 960.359436, 1260.478882 962.219666, 1262.567993 963.531311, 1264.633423 964.957764, 1266.380859 967.372803, 1267.840454 969.493225, 1269.786865 970.092834, 1272.140991 969.907593, 1271.945557 972.296631, 1273.473999 973.856995, 1274.927856 975.449707, 1277.031372 976.062317, 1278.805054 977.333801, 1278.332520 979.340149, 1279.429810 980.973022, 1280.532349 982.526855, 1281.617798 984.389343, 1284.345581 984.075439, 1285.801758 982.274109, 1287.771973 981.120972, 1290.062500 979.853943, 1292.098633 978.486755, 1294.056396 977.196289, 1296.056885 975.916504, 1297.945801 974.869751, 1301.860107 976.440857, 1303.592896 977.796509, 1304.790894 975.801392, 1306.801147 975.672180, 1308.069824 978.079590, 1309.660278 980.027344, 1310.115356 982.201416, 1311.577515 983.630615, 1313.432861 984.534912, 1313.312012 986.488770, 1312.558228 988.880493, 1313.998535 991.011475, 1313.441895 993.197998, 1315.112671 995.396851, 1316.925903 995.614990, 1318.742188 996.219299, 1320.523926 996.875854, 1322.225098 997.780396, 1323.557617 999.661926, 1326.432495 999.981262, 1328.489990 998.805481, 1330.342285 1000.009766, 1332.635376 999.383179, 1334.254761 1000.989258, 1334.724609 1002.846924, 1337.067749 1002.681641, 1339.380615 1002.916504, 1342.021362 1003.146973, 1343.684326 1004.484558, 1344.861328 1006.531738, 1346.146851 1008.335938, 1347.719727 1009.379761, 1349.167358 1010.384705, 1351.015015 1011.342041, 1352.850098 1012.062988, 1354.921509 1012.437744, 1356.854858 1012.484802, 1358.059692 1013.887207, 1359.919678 1012.946228, 1361.324341 1014.285217, 1363.521606 1015.027832, 1365.072876 1013.661133, 1366.817505 1012.513245, 1367.827393 1013.639343, 1369.465454 1014.904114, 1372.003418 1015.378845, 1374.525024 1015.494019, 1376.395386 1014.632446, 1378.228149 1016.103516, 1380.463501 1017.312317, 1382.593750 1018.438293, 1384.119385 1016.769592, 1386.378174 1016.435303, 1388.449707 1016.488647, 1390.238281 1018.443420, 1392.892334 1018.853699, 1395.284424 1020.080994, 1398.291260 1019.965698, 1400.668945 1019.924377, 1402.869385 1021.495117, 1406.175171 1021.999939, 1408.876221 1022.364075, 1411.411743 1022.310242, 1413.564087 1023.756226, 1416.078491 1023.156128, 1418.382812 1024.000000, 1421.155396 1023.181091, 1423.355957 1022.121704, 1426.011719 1022.822754, 1428.663086 1021.669617, 1431.366455 1021.710083, 1433.276611 1020.058289, 1435.695923 1020.171936, 1438.302368 1020.477966, 1440.729492 1019.684509, 1442.960083 1019.025330, 1445.931763 1018.841797, 1448.608154 1017.361938, 1450.588867 1016.252380, 1452.617554 1015.575867, 1455.321289 1015.136108, 1457.543579 1014.681213, 1460.215332 1014.146606, 1462.554565 1012.966614, 1464.870850 1012.287842, 1467.181763 1010.935120, 1468.665161 1009.517029, 1470.924438 1009.669434, 1473.374634 1008.457275, 1475.284424 1007.361023, 1477.768066 1005.852112, 1480.165894 1003.677246, 1482.044678 1001.945679, 1484.293091 1000.471741, 1485.614136 998.178223, 1488.480469 996.152832, 1490.795044 994.228699, 1493.272949 990.932495, 1495.889282 986.672729, 1497.070923 983.172974, 1498.040527 980.183899, 1500.189941 976.586853, 1503.548706 972.712219, 1506.972290 969.644958, 1509.112305 967.163513, 1512.810059 964.989380, 1516.538086 962.460632, 1519.236938 959.867676, 1522.903809 958.067749, 1524.868530 956.033691, 1527.325806 954.089417, 1529.539307 951.418518, 1532.703979 949.396912, 1534.574463 947.089783, 1538.451538 945.077332, 1541.869263 942.585083, 1545.356689 940.409729, 1547.560669 937.890015, 1553.126831 936.387939, 1557.154785 934.659302, 1561.878906 932.551270, 1565.349609 930.355652, 1569.557251 928.336548, 1573.191772 926.157593, 1576.781494 923.688843, 1580.387573 920.790833, 1583.017334 917.979980, 1586.248169 915.095398, 1588.835938 911.809753, 1591.865356 906.705566, 1594.156616 901.027771, 1597.646362 896.167114, 1600.128052 890.011108, 1601.585693 885.006836, 1604.120850 877.939880, 1605.512695 871.738037, 1607.778809 866.826538, 1611.067017 862.472534, 1618.218750 856.474243, 1623.620117 851.808289, 1631.973389 845.253906, 1639.835327 837.127197, 1645.674683 830.166016, 1650.478271 825.844971, 1657.187866 818.550964, 1665.080566 808.742554, 1669.684448 803.591003, 1674.415527 799.083374, 1678.421875 796.421387, 1683.291504 792.213257, 1687.068481 787.875854, 1689.971436 785.161316, 1693.272583 782.389343, 1696.083984 779.872864, 1698.974731 776.838135, 1701.601440 773.305847, 1703.543701 770.899353, 1706.308594 766.746521, 1707.794556 763.526611, 1709.151855 760.082275, 1710.345337 758.096863, 1712.451172 755.814453, 1714.849609 751.674194, 1715.918701 748.070679, 1717.839600 743.919189, 1717.639282 741.957581, 1721.436157 737.145996, 1723.988159 734.088745, 1728.220703 728.743835, 1731.642822 724.029541, 1735.571289 718.832703, 1740.870483 713.429871, 1746.107300 708.496582, 1751.874512 703.811279, 1757.773315 700.244141, 1761.338135 697.870972, 1765.892700 696.201172, 1770.815186 694.434509, 1774.767822 694.227478, 1778.751831 694.055542, 1781.970947 694.702271, 1784.474121 694.732056, 1787.916748 695.615479, 1790.193848 696.941040, 1791.827148 698.614014, 1794.742554 697.750366, 1796.956909 699.700500, 1798.160645 701.665161, 1800.811768 702.843018, 1802.540771 703.614502, 1803.713867 704.981812, 1805.547363 704.997070, 1805.291016 707.069458, 1805.867798 709.280396, 1806.245728 711.579712, 1807.994385 712.730713, 1808.194458 714.861328, 1809.541138 716.584717, 1811.634644 718.213501, 1812.314941 720.626526, 1812.885864 722.697876, 1813.663208 724.846252, 1814.392212 726.694336, 1815.203125 728.662170, 1816.685303 730.503479, 1816.769531 732.397095, 1819.603394 731.816467, 1820.659546 729.694702, 1821.132935 726.881104, 1819.965820 725.054443, 1821.050415 722.831726, 1819.661621 720.804932, 1819.793945 718.987000, 1821.378906 716.617737, 1820.701660 714.553162, 1822.289673 713.439270, 1821.114624 711.759094, 1820.233276 709.842651, 1822.144287 709.253418, 1821.363892 707.405518, 1821.695312 705.230469, 1821.630615 703.038391, 1821.318726 701.088379, 1822.058594 699.413574, 1821.031372 697.778564, 1822.683105 696.700073, 1822.085938 694.687134, 1824.081177 694.071533, 1824.222168 691.793823, 1826.824341 691.640747, 1826.371948 687.209595, 1828.539062 686.709045, 1829.824219 684.887634, 1831.194580 682.871033, 1832.087524 680.719666, 1834.455933 680.386108, 1835.958374 681.794128, 1838.105469 682.434998, 1839.674438 681.274597, 1841.263794 682.116882, 1842.258179 680.011963, 1844.642456 679.635010, 1845.961548 677.102417, 1847.791504 677.907349, 1849.768799 678.654297, 1851.782593 679.820312, 1853.849243 680.078369, 1855.762695 680.940186, 1858.181641 680.591064, 1860.427979 680.243652, 1862.812988 679.666870, 1865.406128 679.148926, 1868.138184 679.085815, 1870.430298 678.572021, 1872.389526 678.543762, 1874.474609 677.953247, 1877.491821 677.576782, 1879.579590 677.507935, 1881.518188 676.065491, 1883.078613 674.614258, 1885.702393 674.690063, 1887.472046 672.145508, 1889.916138 671.747681, 1892.055664 670.672363, 1893.925293 669.533630, 1896.825684 668.731689, 1899.543091 668.336121, 1903.854248 668.850647, 1907.375610 668.514221, 1911.364014 668.256348, 1915.853149 667.569580, 1920.483032 666.924927, 1924.997314 664.836182, 1928.642578 662.573853, 1931.798950 660.111694, 1934.261353 656.959229, 1936.880493 655.286987, 1938.728516 653.039124, 1941.203735 652.013611, 1944.142578 651.345032, 1946.908569 649.815918, 1949.735107 647.909729, 1951.007080 645.481079, 1952.105591 643.461975, 1952.797485 641.555237, 1955.501221 639.853638, 1957.231689 637.359497, 1958.857300 634.375977, 1960.160156 631.396057, 1963.078247 629.290039, 1966.327637 626.785645, 1969.589600 624.404602, 1972.175659 621.848267, 1974.456909 619.503662, 1976.633179 616.853760, 1978.911621 614.484985, 1981.661133 612.613342, 1983.179321 610.258057, 1985.287598 607.698853, 1985.908081 604.875977, 1988.214233 602.348877, 1990.399414 599.451782, 1991.290161 595.857788, 1991.101562 593.414917, 1992.984497 590.317871, 1994.025391 587.241882, 1994.815674 584.129883, 1995.553589 580.010010, 1996.693359 576.505371, 1997.337524 573.300598, 1997.975586 570.427246, 1998.380249 567.146851, 1998.681030 563.368896, 1999.787598 560.188721, 1999.866211 556.613159, 1998.464111 553.218323, 1998.527100 549.628662, 1998.750122 545.276794, 1998.508789 541.354126, 1996.977661 536.747070, 1996.184937 531.466370, 1995.743408 526.580017, 1996.217773 523.914307, 1995.423340 519.771118, 1994.047607 515.318909, 1992.202515 511.789185, 1992.104004 507.024963, 1992.328125 502.816895, 1991.813721 499.522583, 1992.431641 496.458801, 1992.935425 492.825195, 1992.714355 489.252136, 1993.926636 485.775146, 1993.232178 481.361572, 1992.775879 476.968750, 1992.359497 472.398865, 1991.343628 467.970520, 1992.461426 465.926086, 1991.126709 461.403809, 1988.601929 456.504578, 1985.819824 450.141418, 1984.388428 442.134583, 1983.165649 435.474792, 1982.692627 428.994324, 1982.476074 422.085571, 1983.382080 416.913574, 1985.334717 410.465271, 1988.242188 404.767761, 1991.721313 397.268982, 1994.548096 388.876282, 1997.777466 382.418457, 2000.288574 377.863403, 2001.510376 374.354614, 2003.682617 371.103882, 2006.795288 367.225098, 2009.001343 362.138733, 2011.315308 358.294800, 2012.916626 355.128052, 2015.057983 352.283264, 2017.242310 349.792358, 2018.732666 347.049194, 2020.957153 344.395203, 2021.467285 342.041992, 2023.517578 340.440002, 2024.504883 338.117920, 2023.734619 335.663025, 2025.380981 333.838196, 2027.215942 331.791565, 2029.010498 329.652039, 2030.636353 326.978394, 2032.435913 323.877747, 2034.403076 320.308350, 2036.034302 317.472107, 2038.143433 315.474792, 2038.695557 312.585205, 2038.971802 309.511841, 2040.643677 306.569641, 2041.849487 304.063843, 2042.911499 301.613281, 2043.606567 299.322510, 2044.180542 297.399170, 2044.972412 295.840637, 2046.827881 293.739197, 2046.799316 291.485168, 2045.834595 289.946350, 2047.444580 289.396790, 2048.944336 288.609192, 2048.957031 287.052185, 2052.747559 287.503174, 2055.696045 286.616333, 2058.338867 286.063965, 2059.808838 284.608948, 2062.419434 282.841736, 2064.638428 280.050354, 2066.871826 277.868591, 2068.965576 276.077759, 2069.302490 273.274963, 2071.105469 272.086243, 2069.631836 269.566772, 2070.838135 267.573059, 2072.307129 266.513794, 2074.036621 265.030090, 2075.853271 263.461975, 2077.180176 261.348877, 2078.427979 259.556030, 2080.674561 258.576721, 2081.507324 256.533020, 2081.072021 254.591064, 2080.683105 252.188416, 2080.810059 249.664429, 2082.454102 248.263062, 2084.217773 246.497437, 2085.788330 244.406982, 2087.578369 242.699280, 2087.960693 239.936096, 2090.032227 238.052246, 2091.771729 235.928894, 2093.053955 233.813599, 2094.112549 232.188110, 2095.947266 230.811279, 2097.918213 229.685913, 2100.207275 228.101929, 2101.426270 225.835327, 2102.815430 224.261963, 2102.375000 222.405334, 2102.582520 220.606628, 2102.093262 218.496521, 2099.348389 219.392212, 2099.162354 221.174805, 2097.028320 221.513916, 2094.744629 220.857544, 2092.850098 221.999207, 2091.396484 223.247925, 2089.964600 225.091309, 2087.695557 225.802917, 2085.555176 227.145203, 2083.196045 228.505615, 2080.885742 229.886780, 2078.678711 230.869324, 2076.704834 229.516418, 2075.960205 231.783569, 2073.662598 232.949707, 2071.060303 234.540161, 2070.081299 232.364624, 2068.085205 234.659302, 2066.162354 234.734009, 2064.716064 232.476624, 2062.641113 232.246826, 2060.705811 231.935364, 2060.671387 228.979431, 2058.506348 231.628662, 2056.453125 231.061768, 2055.979980 227.738159, 2053.622070 227.087708, 2051.638184 229.672607, 2050.244141 227.825134, 2048.262451 228.571228, 2046.858643 226.776306, 2044.903564 225.469849, 2042.035400 228.657349, 2040.595215 226.197876, 2037.229858 229.074219, 2036.523926 225.378418, 2033.904785 225.829407, 2034.643433 222.898254, 2031.911255 225.510559, 2030.060425 225.074768, 2028.704102 223.039612, 2029.506592 220.205688, 2029.052002 218.671509, 2026.413696 221.584229, 2024.451416 220.705872, 2024.844116 217.960632, 2022.361572 219.623413, 2020.821655 217.681885, 2021.495850 215.063110, 2019.950562 212.832153, 2016.940918 212.524719, 2015.566528 210.345825, 2014.860962 207.286255, 2013.941772 202.901306, 2012.925537 198.389038, 2009.266602 196.608643, 2008.092163 193.980713, 2009.144287 189.846680, 2007.258057 187.557007, 2005.140259 185.397522, 2006.004028 180.943787, 2006.294189 178.535339, 2004.343628 177.299316, 2003.456299 175.411865, 2003.523193 173.178406, 1999.060669 172.210266, 1996.886719 170.254883, 1999.495850 166.904846, 1998.527588 165.067688, 1997.811279 163.555786, 2001.171753 161.955383, 1997.766357 161.573853, 1997.912354 159.358826, 1999.504883 156.504822, 1997.096313 154.911011, 1997.841675 152.723022, 1996.276855 151.174133, 1999.162476 148.621155, 1998.154663 146.506042, 1996.119141 144.564941, 1998.584839 142.316895, 1998.115479 140.010803, 1997.899170 137.358521, 1996.916504 134.972107, 1996.726685 132.536560, 1994.459351 131.146118, 1996.158447 128.864807, 1995.046021 126.589172, 1996.399292 124.588928, 1994.765747 122.226196, 1991.891968 122.048218, 1990.343262 124.465088, 1988.196655 126.511475, 1984.932983 128.161926, 1982.109985 130.536133, 1980.219849 132.131592, 1977.956543 133.440247, 1977.325073 136.161499, 1975.717407 138.788940, 1973.959595 141.729858, 1971.656250 144.869202, 1968.266968 146.871399, 1966.011719 148.583557, 1964.116089 150.153198, 1963.892578 152.289673, 1962.012329 153.014893, 1961.772217 155.364319, 1960.200317 154.791382, 1959.625977 156.907043, 1959.322510 159.080627, 1959.130981 161.443970, 1958.534180 163.147156, 1957.348877 163.668945, 1956.674927 165.022156, 1955.879639 166.713989, 1954.923218 168.126587, 1953.947144 169.929993, 1952.789795 171.515869, 1951.507812 173.092102, 1950.253296 173.784241, 1948.551147 173.481995, 1946.709717 173.335571, 1945.187500 174.721924, 1943.514648 176.165344, 1941.412476 175.885010, 1939.224121 177.234253, 1936.724365 178.550903, 1934.668213 180.377502, 1932.300781 180.263245, 1929.926514 181.645508, 1927.294189 182.864319, 1924.485107 183.905945, 1921.352661 184.032288, 1918.921875 185.259705, 1916.259277 186.255188, 1913.282593 186.026855, 1909.694458 185.187561, 1906.467773 183.854492, 1902.751221 183.265137, 1899.818115 183.263062, 1896.557495 182.765076, 1893.468506 183.471497, 1890.182983 183.020386, 1885.701294 182.326111, 1882.126709 183.478210, 1876.671875 183.055481, 1871.686646 183.769165, 1867.390381 183.731140, 1861.383057 183.531799, 1856.873169 182.233276, 1850.253784 179.381531, 1844.395264 176.146423, 1840.190552 172.787720, 1835.345825 168.525391, 1829.577393 163.889465, 1825.175659 160.488525, 1823.013550 157.606018, 1819.030151 153.183044, 1815.846436 150.812439, 1812.818359 146.454224, 1810.127441 142.575867, 1807.722534 139.046997, 1803.994385 136.350952, 1801.292114 134.960510, 1798.020386 132.140747, 1794.758667 128.433655, 1791.658203 124.038818, 1788.515015 121.404785, 1785.057129 119.181091, 1782.234131 116.453003, 1779.491577 114.011536, 1776.000122 111.108704, 1772.248901 108.262939, 1768.458496 105.661682, 1764.923340 102.515320, 1761.040283 100.965088, 1758.751465 98.783997, 1755.891479 96.531372, 1753.461182 94.447937, 1750.762695 92.733765, 1748.277954 90.664246, 1746.589844 88.410950, 1744.355225 86.641296, 1742.552124 85.039551, 1740.606567 83.525208, 1738.473145 82.560852, 1736.069458 81.553894, 1733.468262 81.048889, 1731.993896 79.485352, 1728.690552 78.923584, 1725.099121 78.141663, 1722.686890 77.197815, 1721.137207 75.262207, 1718.804932 73.973511, 1716.290894 72.419312, 1714.263184 70.310608, 1711.941040 69.716858, 1711.187012 67.548706, 1708.982422 67.469849, 1708.005737 64.527161, 1704.949341 63.401184, 1702.265747 62.084351, 1699.417969 60.521484, 1696.401978 59.064026, 1694.100830 56.134277, 1691.769287 53.676025, 1688.734375 51.001526, 1685.677368 47.858398, 1683.556763 44.935791, 1681.092407 43.515808, 1679.374390 41.655823, 1678.707397 39.557678, 1676.519043 38.831665, 1674.380249 38.344299, 1671.993408 38.792725, 1670.343628 39.711060, 1668.408813 39.110718, 1666.086548 39.754333, 1663.713867 39.845276, 1661.258301 40.414307, 1659.144897 41.276367, 1657.265137 40.500122, 1654.725220 40.291504, 1652.524414 40.300781, 1650.525513 40.303040, 1648.407837 39.511658, 1646.154053 39.764099, 1643.836426 39.483337, 1641.718506 39.836914, 1640.555664 40.896057, 1638.777100 40.509216, 1636.294800 40.355408, 1633.880005 40.889038, 1632.185547 42.034973, 1629.905762 41.745483, 1627.326904 41.099976, 1624.883545 42.158752, 1622.627686 42.804199, 1620.276611 42.469360, 1617.850952 42.542664, 1615.738892 42.866821, 1613.437744 42.106506, 1610.943848 42.389099, 1608.998047 43.434387, 1607.228394 43.298767, 1606.095825 41.998779, 1604.050415 42.455811, 1602.256226 41.503540, 1600.265259 42.011108, 1598.338013 40.673035, 1596.047119 41.416504, 1593.902588 40.416626, 1591.704102 40.052917, 1589.955444 40.075623, 1588.628906 39.056458, 1586.486572 38.641968, 1584.889893 37.200806, 1583.096069 36.644775, 1581.469116 35.552551, 1579.440308 35.220032, 1577.529053 34.192871, 1575.124634 34.392578, 1574.162354 32.652954, 1572.208862 33.863892, 1571.007202 35.692749, 1569.246704 37.981384, 1567.370605 39.936951, 1564.749512 41.288635, 1563.506226 44.479980, 1560.438721 45.638245, 1557.100952 47.566040, 1554.658203 50.455017, 1552.774414 53.126465, 1551.437744 55.610229, 1551.994995 58.124939, 1550.635742 60.513306, 1548.845581 62.959167, 1547.635620 65.553040, 1547.578979 67.318298, 1546.554321 68.831116, 1545.425537 70.820923, 1544.516724 73.029968, 1543.790039 74.918030, 1543.099243 77.075562, 1542.787842 79.253296, 1542.188721 81.214600, 1541.692017 83.378052, 1541.449219 85.510254, 1540.796143 87.946472, 1539.324707 89.538940, 1537.346191 90.837708, 1534.979370 92.100830, 1532.489502 93.172241, 1530.278931 94.678223, 1528.790283 96.075684, 1527.050781 95.979797, 1524.720825 96.015930, 1522.189697 97.380188, 1520.557739 99.760925, 1519.945557 101.713989, 1518.942871 103.505371, 1516.827393 105.497681, 1515.949463 107.763062, 1513.888550 109.870728, 1511.170776 112.702332, 1507.740845 115.406616, 1504.332397 117.528320, 1501.539917 120.903198, 1498.676636 124.776062, 1495.746460 128.734680, 1493.669678 130.938171, 1490.639038 133.437988, 1487.658691 135.841492, 1484.869263 140.486206, 1483.096069 143.552917, 1481.058472 147.800720, 1478.771484 150.039673, 1476.068115 153.080505, 1473.408813 157.145447, 1470.789673 159.666016, 1467.838989 163.598145, 1464.168823 167.048706, 1460.209473 170.481079, 1456.200806 174.658020, 1452.967651 178.135864, 1447.718018 183.066833, 1441.467285 187.885498, 1435.520264 192.344666, 1429.154297 196.648193, 1422.085693 200.784119, 1416.486206 203.784729, 1412.145630 204.373047, 1406.326904 205.305725, 1400.218628 205.885925, 1394.896362 207.018616, 1390.716187 205.958252, 1385.913330 204.632507, 1381.710083 203.413330, 1378.143677 202.950439, 1374.899780 202.254272, 1371.128296 201.498291, 1367.703491 202.210022, 1364.390991 201.815796, 1361.745972 200.455139, 1358.079834 200.104553, 1354.607910 200.401550, 1350.482300 200.655029, 1346.120850 200.678101, 1342.337769 200.192993, 1338.396729 199.432434, 1333.718018 199.447449, 1330.547119 199.275024, 1326.793945 199.140381, 1323.912231 199.860962, 1321.068726 198.797241, 1317.847900 199.136841, 1314.210083 198.576294, 1311.210815 199.147827, 1309.162598 199.597107, 1306.019897 199.749146, 1302.638794 199.642578, 1299.576660 199.809143, 1296.554077 199.685913, 1293.776367 198.377686, 1290.807739 196.875671, 1288.100952 197.049072, 1285.935181 195.732910, 1284.148560 194.318542, 1282.097656 192.966553, 1279.392334 192.667664, 1276.996216 192.671387, 1274.872803 193.512878, 1272.698730 194.100708, 1270.581909 194.647705, 1268.046997 194.995728, 1265.146362 195.193298, 1261.904175 195.622498, 1258.677124 195.988525, 1255.272827 195.207214, 1252.353271 195.874756, 1249.487427 196.776855, 1246.412476 196.284546, 1242.837158 197.083679, 1240.409790 197.961548, 1238.011353 198.493713, 1235.614868 197.934937, 1233.810791 196.391724, 1232.034302 194.396240, 1228.380737 193.174011, 1225.936035 190.930420, 1223.803955 188.849243, 1221.337158 187.484802, 1219.676514 185.245300, 1216.933716 185.033875, 1215.928101 183.549011, 1214.083496 185.278320, 1213.091553 187.405090, 1213.860229 189.336548, 1212.402710 191.124023, 1213.033569 193.221252, 1211.792236 195.544495, 1212.383545 197.927612, 1211.286011 199.238037, 1211.105957 201.042480, 1208.658691 201.743652, 1206.814575 203.497925, 1205.173340 205.728821, 1204.321899 208.029602, 1202.901001 209.866272, 1201.460693 212.450073, 1201.366333 214.647705, 1202.314575 217.288513, 1200.170776 218.323608, 1199.180786 221.244995, 1197.512085 223.126282, 1198.030273 226.960938, 1196.008667 229.595520, 1195.725342 232.854614, 1193.509521 234.139587, 1192.032959 236.722473, 1190.320801 239.249634, 1188.678467 241.843079, 1186.469116 245.157288, 1185.160767 249.091125, 1181.577881 253.035645, 1179.385498 255.871948, 1177.003052 259.739258, 1176.089600 262.153137, 1173.080444 266.095581, 1169.723511 270.769409, 1167.790771 274.049866, 1164.327759 279.518494, 1163.063599 282.156616, 1160.028809 285.763245, 1157.556763 287.945251, 1154.046631 291.656555, 1150.207642 295.157410, 1145.611938 299.209900, 1142.003662 302.548889, 1139.400146 305.676514, 1136.106934 307.930054, 1132.470825 309.942444, 1128.411987 312.837463, 1125.125854 315.644958, 1121.895020 318.033508, 1118.981689 320.054199, 1115.988281 322.018494, 1113.615479 322.171326, 1111.152710 321.859131, 1110.117798 324.003601, 1108.729736 325.669434, 1106.470581 326.754028, 1104.614136 329.591919, 1102.263062 331.569641, 1100.604248 334.726929, 1099.700317 337.523193, 1096.899414 339.915344, 1093.399170 343.500977, 1090.738770 347.186462, 1088.757935 350.400696, 1086.142334 351.887207, 1083.194092 355.235901, 1080.763794 358.531677, 1078.188843 361.621399, 1075.349243 364.462891, 1072.531616 366.804321, 1070.246216 368.421509, 1068.415527 370.273254, 1066.478760 372.331482, 1064.904419 374.283264, 1064.434937 376.238770, 1062.465332 378.090942, 1062.015381 380.936829, 1060.733643 383.664795, 1059.620605 386.435608, 1058.068359 389.430542, 1058.410278 390.975464, 1056.645996 393.111572, 1055.520630 396.231812, 1054.242065 398.968201, 1052.712524 401.657471, 1051.235596 404.530396, 1050.401245 407.958923, 1050.513794 410.666809, 1048.973633 412.777710, 1047.992432 416.111389, 1046.797119 419.342651, 1045.931152 422.815369, 1045.093384 426.058228, 1044.537354 429.331055, 1043.245483 431.678101, 1041.480591 434.609009, 1040.409058 438.451294, 1040.393188 440.656372, 1039.289673 443.777466, 1038.593262 448.053284, 1037.065674 450.852966, 1035.931641 453.122070, 1035.620117 456.701355, 1034.252197 460.104492, 1032.973999 464.947693, 1032.418579 469.481140, 1030.887573 473.916565, 1030.338867 477.478699, 1029.326904 480.636475, 1028.250000 483.442932, 1027.324341 486.084229, 1026.705811 489.476929, 1026.583130 492.708191, 1026.408691 496.290833, 1026.739990 499.170593, 1026.791382 501.606628, 1026.317627 505.587891, 1026.292358 509.745483, 1026.501709 512.411865, 1025.684814 517.049438, 1026.061523 522.034302, 1026.430664 525.903015, 1025.962402 529.925293, 1025.809448 534.394165, 1026.011108 539.038208, 1025.986938 544.203613, 1026.787964 549.128906, 1026.948853 552.868896, 1027.430298 557.025635, 1027.733154 561.405762, 1028.914185 566.051270, 1030.030396 569.795776, 1031.045410 573.496704, 1032.267700 578.191284, 1033.460693 583.100281, 1034.344604 587.986511, 1035.626953 592.499878, 1036.639160 597.001770, 1036.080078 599.036987, 1037.180420 604.437500, 1038.197998 608.638428, 1039.454712 611.784790, 1040.734253 613.520935, 1040.832642 616.517578, 1041.866455 619.674194, 1042.736694 623.067139, 1043.995361 626.686279, 1046.092651 630.767334, 1047.609985 632.181641, 1048.697388 635.411377, 1050.647339 638.778931, 1051.651978 641.467224, 1053.566406 645.537415, 1055.109375 649.438599, 1056.817993 653.238281, 1058.822021 656.317749, 1061.261597 658.297302, 1063.700806 661.035217, 1066.908569 665.447388, 1069.786133 669.791260, 1073.502197 675.709351, 1078.060059 683.401001, 1079.635620 685.771667, 1082.128296 691.570312Z M979.057190 621.880371 L980.222778 619.240356, 982.747681 616.179077, 985.454956 612.668823, 986.472717 609.665039, 987.732422 607.212402, 991.202271 602.970825, 993.554810 598.957153, 995.551880 595.201416, 997.031738 592.228760, 998.692505 588.804443, 1000.062561 585.726318, 1002.101074 582.191895, 1003.821289 578.559937, 1005.155151 574.642700, 1006.536926 570.980957, 1007.756470 567.224976, 1008.819641 564.122009, 1010.162598 561.317993, 1011.561707 557.074463, 1012.157288 552.999512, 1013.360718 551.767212, 1014.883606 547.947144, 1015.126648 544.061035, 1015.995667 540.940063, 1017.240845 536.726074, 1018.124023 532.071045, 1018.558044 527.877808, 1019.653076 526.390137, 1020.688965 521.881165, 1021.564148 517.774780, 1022.466614 513.495972, 1023.001892 509.381958, 1023.682312 507.342102, 1024.686890 503.654724, 1025.120361 499.686462, 1025.094849 495.880554, 1025.454956 492.179688, 1025.684814 487.975098, 1025.064697 484.164246, 1024.465210 480.881531, 1023.550842 477.047791, 1022.375305 473.567200, 1021.676880 470.141663, 1020.722473 466.076477, 1019.830811 461.862915, 1017.369568 456.203247, 1017.074402 453.280090, 1015.277466 447.622681, 1013.312744 441.386047, 1011.791809 436.091492, 1010.473572 433.257263, 1009.240112 427.373779, 1007.833313 422.938599, 1006.592407 417.652405, 1005.660767 413.153442, 1005.225891 410.125366, 1003.539673 404.382446, 1002.358337 399.237854, 1001.598206 396.227783, 1001.088623 393.040283, 1000.381653 389.184387, 1000.366394 385.706421, 999.644165 382.352051, 999.118530 378.994141, 998.269897 375.512024, 997.197632 373.251282, 995.593567 369.987183, 994.232178 366.249756, 993.836487 363.382385, 994.017639 360.411865, 993.331421 357.038574, 992.490356 353.305664, 991.939392 350.007263, 990.952393 346.237610, 989.685974 342.933594, 988.288269 339.853516, 986.696106 336.533875, 985.084534 333.316895, 983.532349 330.491333, 982.193909 327.370850, 980.738770 324.400146, 978.355286 322.714355, 978.127380 320.732239, 977.121948 317.609558, 974.846130 315.307495, 973.127380 313.327576, 971.498901 311.982544, 969.786804 310.130127, 967.542908 308.409180, 965.981812 306.175598, 964.349060 304.264526, 963.042053 301.528259, 961.213135 298.391113, 958.702698 296.021729, 957.212708 293.306030, 955.057495 289.972412, 952.577332 287.140991, 950.673096 284.373718, 948.458435 282.167786, 946.338989 279.963379, 944.877136 277.203613, 944.018127 273.959839, 941.946228 271.555725, 940.183716 269.236206, 937.698425 269.035889, 936.697876 267.251892, 933.863647 267.285095, 932.553711 265.079651, 929.608459 264.834717, 927.030701 263.457031, 924.298157 264.482849, 921.965210 262.641663, 918.948608 261.533813, 915.989258 260.934204, 913.072083 259.619019, 910.201782 257.962830, 907.114563 256.246033, 905.211182 253.611938, 902.392151 252.251648, 899.159302 247.879944, 895.838745 245.161072, 895.103699 242.081421, 892.762695 238.567627, 890.485291 235.820801, 888.585876 232.769287, 885.130432 230.211060, 882.959961 227.113342, 881.357605 223.986023, 879.738220 220.756531, 878.115540 217.231323, 875.986816 214.150208, 873.839172 211.968262, 872.274536 209.627380, 871.381042 206.769958, 869.574707 204.199341, 868.336914 201.967529, 867.089600 198.404602, 865.533264 196.330322, 863.780334 194.569031, 861.981628 192.602539, 859.791443 190.453125, 857.867310 188.418396, 856.677551 185.483093, 854.884155 182.888611, 852.942810 180.287598, 851.458130 178.028198, 850.467468 176.463745, 850.298035 174.284790, 850.435120 171.706360, 848.079285 170.291626, 849.490051 168.904053, 849.459290 167.055237, 846.960571 167.704163, 845.663513 165.869446, 846.599548 163.296082, 846.434021 160.979492, 844.399536 159.408752, 844.303894 157.463623, 842.845703 156.289185, 841.541016 154.092896, 842.565552 151.992310, 842.840454 149.499634, 841.383301 147.187317, 839.582764 145.862854, 839.539429 143.848877, 839.961243 141.694824, 840.493774 139.292542, 838.637268 137.381042, 836.252991 137.619080, 834.480042 137.711914, 832.249329 137.338013, 829.012329 137.464661, 825.678223 137.759583, 822.075195 137.402954, 818.352905 138.018677, 814.861023 139.353027, 811.903687 140.051270, 809.991272 138.291077, 807.268005 138.690491, 805.344604 140.720581, 802.432190 142.224060, 799.599915 144.324951, 796.289856 145.446228, 793.514893 146.997681, 790.373901 146.899536, 787.298523 146.802246, 784.336792 146.765198, 781.337341 147.484497, 778.794617 146.704468, 776.303406 146.225525, 774.182922 146.828796, 771.984253 146.828125, 769.464478 146.935425, 766.680359 148.093994, 764.991577 147.171082, 762.238464 146.924500, 759.382812 147.922119, 757.230103 148.440308, 754.768860 147.776001, 752.009644 148.312805, 749.474304 149.246826, 747.605652 150.342468, 745.911560 150.010315, 743.486511 149.967834, 741.151978 150.827576, 738.738464 151.219238, 736.234924 152.165833, 733.850159 153.113708, 730.225098 154.017334, 727.231506 154.788025, 723.916504 154.505432, 720.366089 155.663086, 716.853577 155.864014, 713.670532 156.320496, 710.608582 157.380798, 708.899841 155.594421, 706.545898 156.682556, 703.514404 156.438110, 700.192932 157.664551, 697.405823 158.697510, 694.482239 158.804321, 690.771912 158.631836, 686.845825 158.625366, 683.456360 158.564514, 680.886169 159.914001, 678.416138 159.521912, 674.838562 159.554626, 671.071289 160.140259, 667.617981 162.110168, 662.842529 161.981140, 657.425537 162.608887, 653.712158 162.929443, 648.231567 162.867188, 641.755249 161.068359, 636.023315 159.157776, 630.600586 155.899475, 624.970276 150.836975, 619.189209 147.174622, 614.771912 144.133606, 610.920105 140.812195, 606.572327 136.488525, 603.509094 134.112183, 600.796875 130.419617, 597.757446 127.318115, 594.782227 124.097290, 591.633362 119.631470, 588.464294 116.896606, 585.854309 112.976440, 583.821472 110.113586, 581.588806 107.319336, 578.240845 106.384338, 575.920837 104.473877, 573.163269 102.134521, 571.205933 100.122620, 569.506836 97.710327, 567.790283 95.038330, 564.964539 93.162354, 563.726746 90.985718, 560.942322 89.051758, 559.605164 86.746277, 558.200195 84.411804, 556.008606 82.382385, 553.535889 80.725586, 551.787170 78.658752, 549.812500 77.850952, 548.431885 75.827881, 546.413757 73.951111, 543.954529 72.773071, 541.823608 71.694153, 540.659241 70.067017, 539.254944 68.265930, 537.095276 67.375366, 536.007568 65.683044, 534.340515 64.472534, 534.128357 62.733643, 533.380859 60.648315, 532.159363 58.677246, 530.986816 56.791565, 530.023926 54.842834, 529.451233 52.962402, 528.970398 50.887634, 528.852600 48.773010, 527.429565 46.323364, 526.491943 44.211243, 525.570251 41.780701, 523.306091 40.581665, 522.575378 38.257996, 519.999329 39.683105, 517.202759 37.929382, 515.294556 36.161377, 513.571472 36.043335, 512.595947 33.754395, 511.028473 32.029907, 508.541168 30.969666, 508.938965 28.216736, 507.152863 25.640747, 505.151520 21.715881, 503.235901 17.671448, 501.345825 13.852722, 499.160492 11.163330, 498.678284 8.525146, 498.488922 6.517029, 496.429382 4.773743, 493.904510 5.001709, 491.544159 5.533936, 489.065613 6.060547, 487.043121 6.920654, 484.724731 7.650452, 483.166534 8.960938, 480.709656 8.713257, 479.205597 10.545410, 476.909698 9.890259, 474.442780 10.691772, 472.723602 12.998474, 470.507599 11.456482, 468.206177 11.692261, 466.011932 11.789734, 463.747223 11.956970, 461.877228 10.919128, 459.464386 12.028320, 457.854401 9.697998, 455.212921 10.704590, 453.984100 8.845947, 451.844452 9.123840, 449.436371 8.231079, 447.195374 8.299744, 445.118225 9.598145, 442.814972 8.032104, 440.095764 7.253357, 437.882660 6.972351, 435.324890 6.813110, 433.239563 6.551819, 430.469513 6.498047, 428.949615 5.234192, 426.684998 4.008728, 424.279388 3.672729, 422.210815 4.747437, 420.349731 4.232910, 417.929749 3.644958, 415.810852 3.345093, 413.308411 3.124207, 410.708984 2.776062, 408.514313 4.404297, 406.779816 2.412231, 404.436920 2.066650, 402.455292 0.000000, 399.669403 1.229919, 397.650726 0.548035, 395.066223 0.140503, 393.094940 3.223022, 390.574585 4.687256, 387.999420 6.641357, 385.502594 8.703552, 383.191162 10.528503, 382.751648 13.047119, 380.742096 14.330994, 379.534546 17.663757, 378.205231 20.541138, 375.546082 21.612122, 374.706177 23.940125, 373.843658 25.863953, 373.966949 27.673462, 372.083588 27.333252, 371.070801 28.386902, 369.839294 29.505127, 368.608582 30.676270, 368.090118 32.430969, 367.830322 34.072449, 367.652435 35.516418, 366.166504 36.626892, 364.305206 37.829590, 362.418762 39.314453, 361.286224 41.478394, 359.809845 43.174438, 357.429291 44.261719, 355.792114 46.435608, 352.958405 48.150757, 351.022491 51.268921, 348.503998 54.272644, 345.622681 56.963135, 342.790558 59.806519, 340.567963 62.901123, 337.760132 64.625916, 334.830292 67.406677, 331.808533 70.561768, 329.033051 73.386169, 326.050110 75.992981, 322.883453 78.372437, 319.945801 80.350403, 318.784790 83.038391, 318.020782 85.620728, 316.505066 87.691101, 314.780334 89.767639, 313.107025 91.701599, 310.986450 94.298157, 309.311279 96.775757, 307.605316 99.055542, 304.315582 101.762817, 300.861206 103.790344, 298.544342 107.089050, 295.232239 110.157776, 292.931793 112.368896, 289.499695 113.800354, 286.055939 116.343506, 282.304810 119.873962, 278.367737 123.456909, 274.272339 127.981689, 269.865265 130.421326, 262.980011 135.547913, 257.902893 139.912598, 250.681473 145.128662, 245.411621 148.114929, 237.195084 150.361877, 230.709427 152.141846, 224.018372 153.250610, 217.919373 153.856934, 211.855713 155.210754, 207.155655 155.618591, 203.989944 154.898376, 200.409058 154.332520, 197.628418 153.787292, 194.976028 153.973206, 192.330627 154.587769, 190.264511 154.776855, 187.606064 154.165649, 185.791107 154.900146, 183.864975 153.972961, 181.588989 154.528015, 179.778961 155.151855, 177.765320 154.588562, 175.231934 154.328125, 172.400146 153.894775, 168.696991 152.906982, 164.415558 151.140808, 159.963776 150.853638, 155.223450 150.405273, 150.856750 149.820801, 146.988174 149.185730, 142.956696 148.615784, 138.465668 148.178894, 134.712280 149.267029, 131.243607 148.494446, 127.951424 149.874817, 125.305183 150.514893, 123.210922 150.830811, 121.316101 150.539490, 119.285408 149.764954, 117.132248 149.200928, 115.171631 149.728149, 113.077652 149.565308, 111.333527 149.468811, 109.411308 149.008606, 107.421432 149.060852, 105.614021 150.252991, 104.391502 151.386047, 103.764122 152.747559, 102.607674 152.040649, 100.914810 151.470703, 99.508698 151.539001, 97.729431 151.593872, 96.056038 151.640015, 94.577332 152.929565, 92.540855 153.812866, 90.905579 152.162659, 87.940613 152.347351, 84.586090 152.893188, 81.903221 153.159241, 79.492851 153.611938, 75.623154 153.827209, 72.174507 152.373169, 70.565414 150.529236, 69.259766 148.934753, 66.479042 149.389832, 67.165977 151.817749, 68.884567 153.407471, 68.555412 156.100769, 70.289658 157.608521, 71.664734 159.093140, 69.834030 161.828247, 68.566589 164.266785, 66.556213 166.123962, 69.837196 166.891235, 69.661438 169.446045, 71.564461 171.170715, 72.792381 173.003723, 71.058418 174.942139, 74.156555 175.692749, 73.988060 177.990540, 71.547684 180.102539, 74.050598 180.636353, 75.866295 182.672546, 75.062126 185.304138, 74.708450 187.967529, 73.631966 190.444092, 72.673470 193.057678, 74.911613 195.848022, 74.071007 198.831970, 71.081528 199.906982, 72.799187 202.217529, 72.326599 204.689636, 71.078545 207.595520, 67.663544 210.027954, 66.092659 213.508301, 65.026154 216.810181, 62.988461 220.236450, 60.767181 223.236267, 58.701164 226.368713, 57.234009 228.518005, 54.372860 229.858337, 53.185101 232.967957, 51.749352 235.661804, 52.199108 237.539673, 50.015385 238.617737, 49.056232 240.945557, 47.338104 243.117065, 47.318535 246.484741, 44.832119 246.598633, 45.021393 250.301331, 42.952579 251.778381, 41.824932 255.738586, 39.754345 258.520996, 39.718281 262.021362, 37.335308 264.069214, 36.724236 266.726501, 35.684376 269.486633, 33.251080 271.161011, 31.002865 272.962952, 30.722538 277.102112, 29.071325 278.630249, 26.845478 279.189087, 25.104893 279.732239, 23.817417 280.798035, 22.162106 280.864380, 20.198879 280.930298, 18.856512 282.049316, 17.576399 283.120911, 15.752871 283.478516, 13.947143 282.190979, 11.911691 282.470093, 10.114164 285.249146, 7.486651 287.151428, 4.921951 288.687622, 2.438609 288.832825, 0.000000 288.861450, 0.564942 291.654358, 1.761274 293.829956, 1.962294 297.049316, 4.109112 298.136902, 4.585893 301.049744, 4.805831 304.099243, 6.334586 305.862793, 7.763064 307.519348, 6.501963 309.660217, 6.814722 312.152344, 8.039851 313.438293, 8.709916 315.441650, 10.021809 317.477478, 11.866492 318.784973, 13.584804 318.903625, 14.463345 320.987732, 15.560611 322.940552, 16.320049 324.890076, 17.828209 326.461182, 18.392220 328.394287, 19.040197 330.820984, 21.060925 332.623169, 22.147753 334.692139, 23.969137 335.917114, 25.403395 337.753967, 25.981291 340.561951, 27.423096 342.680603, 28.916437 344.988342, 29.904854 347.429138, 30.487036 349.855225, 30.710794 352.567200, 32.119701 354.961975, 33.969513 356.672974, 34.952614 359.362427, 35.881107 361.924133, 37.555340 364.002319, 39.347832 365.819702, 40.275299 368.542542, 41.541061 371.858704, 44.414982 373.670532, 46.428905 376.691406, 48.161942 379.346619, 49.850338 382.595032, 51.221130 386.035095, 52.723602 389.881104, 55.512154 392.243042, 57.860271 394.428955, 60.178288 397.109314, 62.789585 400.354065, 64.330177 404.519348, 66.009720 409.434509, 69.025291 414.880310, 72.090630 419.886414, 75.280388 426.292053, 77.179680 433.731873, 78.190742 440.971191, 78.639008 448.018555, 78.772736 454.792297, 78.965744 461.995361, 78.783081 469.612854, 77.477623 475.776855, 77.031593 482.057617, 76.260223 487.501221, 77.056381 492.478271, 76.363762 499.331848, 76.072258 504.141052, 74.002045 509.336060, 72.918938 516.148132, 73.722458 520.003418, 74.368851 523.517578, 73.501587 528.112183, 74.155624 531.690796, 73.425545 535.839600, 73.951157 540.308105, 74.231483 543.959167, 75.333969 548.284912, 75.545425 553.199646, 76.520706 556.798035, 76.963745 560.487061, 77.533539 564.059448, 77.705017 568.218262, 78.191490 571.749146, 79.576820 575.204834, 81.335106 577.813904, 82.184296 581.306763, 83.317535 584.695251, 85.206390 586.590454, 85.947098 589.338745, 88.000534 591.899536, 89.476448 594.469849, 90.878929 596.905762, 92.357727 599.969604, 94.057312 603.013062, 95.743378 605.453979, 98.080307 607.917358, 100.401123 609.871399, 102.554466 611.470093, 104.895401 614.012207, 106.608681 615.753174, 108.653267 618.765686, 109.262756 620.975281, 111.617401 623.688965, 114.910599 625.553711, 116.977173 626.937134, 119.246635 630.075806, 121.834259 632.226135, 123.964302 633.978149, 125.505920 636.402954, 126.754723 639.536377, 128.681885 642.654297, 131.778061 644.783203, 135.233612 645.700928, 138.160736 646.501587, 141.436050 647.622131, 144.124786 650.172852, 147.473160 651.155884, 150.626465 652.288086, 155.488495 653.934570, 161.969406 654.652710, 167.455460 654.231262, 171.752350 654.567627, 175.663803 655.491394, 179.321671 656.310608, 183.341965 656.734253, 186.448685 658.926880, 190.209335 659.313599, 192.707504 661.692566, 196.079254 662.700073, 199.041519 663.305969, 202.012741 664.727539, 205.240616 664.982971, 207.560486 666.333130, 210.917526 666.347900, 213.467972 666.230347, 216.049820 667.526917, 218.457581 667.875610, 220.657700 667.293091, 221.600632 668.904297, 224.860474 668.898315, 227.615570 669.686401, 230.523132 670.845215, 233.090256 670.221375, 234.800919 671.580627, 235.664825 673.790161, 238.449844 674.576050, 240.495819 674.997375, 242.165115 676.828125, 244.434204 678.314331, 245.289917 680.805298, 247.493301 681.625793, 248.456421 683.317383, 250.862167 684.352905, 252.981491 690.361511, 252.461197 693.027466, 255.093933 692.529053, 256.638519 693.551392, 255.490189 695.545532, 258.061584 695.467346, 258.579987 697.043396, 256.426514 698.778992, 257.895844 700.966370, 260.230408 701.414429, 259.756226 703.785461, 261.671112 705.406311, 259.658539 706.967651, 259.816406 709.061157, 258.953461 710.683960, 259.628387 712.427368, 260.175323 714.557739, 260.161926 716.486938, 261.474274 718.477478, 261.700409 720.252869, 262.469879 722.185425, 264.889404 721.481934, 266.329926 719.826782, 268.157501 719.626221, 269.421570 718.329346, 269.289337 716.654602, 271.676239 716.273438, 273.315613 714.937866, 274.098511 712.832458, 276.330048 711.870911, 277.901306 710.040894, 279.464874 707.904541, 280.576080 705.706177, 281.387787 703.634033, 280.788422 701.402344, 282.426453 700.179565, 284.624603 699.615479, 287.257233 700.127380, 290.567047 699.514893, 293.012177 699.066589, 296.642731 698.583130, 299.056824 698.103455, 301.492828 698.482422, 303.329956 700.542786, 305.760681 703.038391, 308.482941 705.077026, 311.796173 706.767395, 314.462830 707.322388, 317.926605 708.872314, 321.788452 712.149109, 325.993866 716.806274, 329.962830 721.080444, 333.029236 724.503784, 336.079559 727.644958, 339.329285 732.629028, 343.503723 737.351196, 345.229950 741.091797, 348.111206 745.928345, 351.745941 751.232361, 354.549591 755.566040, 358.168640 760.166992, 360.970001 764.522583, 363.524658 768.600403, 366.888855 773.203186, 370.218781 777.557312, 373.791199 781.791382, 376.609558 785.146362, 380.987244 790.459473, 384.880127 795.213867, 389.560791 802.929382, 395.068420 810.016541, 401.596985 817.242554, 409.797699 823.070312, 417.510254 829.224487, 422.767181 834.205444, 433.976196 841.386963, 442.299988 848.830688, 448.163574 854.968872, 455.288696 861.913818, 457.577148 865.602417, 462.542542 870.541748, 468.630798 877.786438, 474.681793 883.629272, 477.819885 888.616272, 481.659210 893.942444, 485.002960 898.714783, 488.549927 902.787415, 493.081573 906.893494, 496.686279 910.404968, 501.008759 913.634766, 504.470154 914.739929, 507.379272 917.043762, 510.836853 920.251831, 513.413696 923.454163, 515.086121 926.796753, 518.669739 928.291870, 519.664612 931.187744, 523.410095 934.704346, 527.343628 937.720337, 529.525330 941.596680, 532.799072 944.295898, 534.945312 946.498718, 536.690613 949.088257, 539.562622 951.846069, 542.303467 953.692993, 542.446350 955.375671, 543.647400 957.479065, 545.626343 959.654968, 547.289917 961.914001, 549.342102 963.569824, 551.448730 964.375244, 552.602905 966.346252, 554.811523 967.278687, 555.231567 969.248230, 556.473450 971.908081, 561.680847 974.239258, 564.154907 976.264526, 566.182495 977.886719, 567.733215 979.273499, 569.549133 981.172668, 571.921082 981.906921, 573.646912 984.040894, 576.547729 984.793945, 579.248962 985.424927, 581.730225 987.062744, 584.908081 988.417480, 587.752991 989.470581, 590.248047 991.098022, 592.753662 992.473511, 594.834229 994.174805, 597.305359 994.939758, 599.021179 996.351990, 600.574646 998.355042, 603.178162 999.222290, 604.329590 1001.170349, 605.564270 1003.175903, 607.394348 1002.227600, 609.637085 1002.683044, 611.344971 1001.549072, 613.823486 1002.071045, 615.292480 1000.084961, 617.503052 1000.338257, 620.099487 1000.079407, 622.342712 999.477051, 624.701416 998.934875, 626.512756 997.336792, 628.234985 995.583496, 630.982544 995.695862, 633.209900 995.104126, 635.683167 996.328491, 638.513306 996.130188, 641.374207 995.171692, 642.375488 993.065369, 644.349976 993.848938, 646.743347 994.356201, 648.596191 992.812073, 650.268066 992.055542, 651.936829 993.922852, 654.605530 993.468506, 656.990967 994.684814, 659.443909 995.983521, 662.497803 995.607544, 665.318970 993.685486, 668.392883 994.093445, 671.031433 994.400818, 673.742065 996.043762, 676.919861 995.626282, 679.632996 994.749695, 682.069824 995.512573, 682.754272 993.488403, 684.459412 992.590881, 686.424072 993.395203, 687.262329 991.598877, 688.412109 990.291260, 690.554626 989.318481, 692.107056 987.921387, 694.012817 986.495300, 695.969177 987.034180, 698.181763 985.394775, 698.300171 983.420959, 699.745605 982.441833, 701.957947 982.360413, 703.725464 980.858032, 704.483215 979.042542, 706.148560 978.662598, 708.182983 979.618042, 709.040283 977.934570, 710.590210 977.088745, 712.582153 977.037537, 713.929749 975.431824, 715.041260 973.919617, 716.931519 974.725952, 716.936523 972.462524, 717.833679 971.148010, 719.054016 969.704834, 720.305664 968.053284, 721.146179 966.173767, 722.033203 964.571716, 723.546021 963.512695, 723.445801 961.620178, 724.223206 959.979248, 725.677979 958.481567, 725.691162 956.240723, 727.852539 955.982361, 730.336914 955.761963, 732.017334 954.168701, 734.929199 953.756287, 736.864380 953.769348, 738.572693 955.182007, 740.895874 955.887146, 741.967407 957.407227, 742.998718 959.495300, 743.696838 961.635986, 746.306946 961.769104, 746.534851 959.433105, 749.560303 959.440186, 752.185486 959.425903, 754.236023 957.848267, 756.263611 956.105896, 758.422546 956.356934, 760.410645 955.866516, 761.311890 954.223328, 763.445190 954.708984, 765.298889 953.886169, 767.628357 954.292358, 769.956421 953.064209, 771.658691 951.939514, 773.938843 953.264404, 776.057190 952.052368, 777.442383 951.013062, 779.084473 950.126526, 780.241943 948.622620, 781.730713 947.739197, 782.833557 946.362854, 785.107117 946.016541, 787.915283 946.012634, 790.352356 946.041809, 792.957336 945.237549, 795.628540 944.280518, 798.719727 944.415283, 801.694763 944.130493, 804.771851 943.975342, 807.723267 942.504761, 810.898315 941.711487, 814.115479 940.856506, 816.564026 940.188049, 819.555786 940.276733, 822.484924 939.147217, 825.097473 938.756714, 827.934814 938.454529, 831.448364 937.954041, 834.574524 936.890991, 837.014709 934.932007, 839.416077 933.672607, 841.617249 931.671509, 844.174255 930.577087, 847.624023 929.163330, 851.683777 927.177551, 854.720093 925.534607, 858.353088 923.004211, 861.721252 920.268555, 864.869019 917.536133, 868.125977 914.819458, 871.421997 912.739685, 873.381470 910.623901, 876.187195 909.083740, 879.147217 906.509583, 882.677612 903.454895, 886.550842 898.926025, 887.857239 896.675903, 890.799561 893.809082, 893.885193 891.088562, 896.815796 887.895447, 899.029785 886.211182, 902.482422 883.893616, 904.895996 880.478577, 906.889099 878.560791, 909.857544 876.283325, 912.588867 872.984741, 914.723083 869.827026, 916.621765 867.535522, 919.059875 864.832397, 920.821533 862.092712, 922.759399 858.953613, 924.488159 855.694397, 926.206665 852.430054, 927.273376 849.778198, 928.439209 847.745728, 930.928528 844.087769, 932.413025 840.069275, 933.709717 836.673340, 934.900391 834.639038, 936.651672 830.906494, 937.792725 827.225708, 938.870972 823.590088, 939.051392 820.445068, 940.149353 818.200195, 941.065552 814.177979, 941.681885 810.257446, 942.325439 805.899292, 942.996155 802.511047, 943.563293 798.275146, 944.117798 793.726501, 944.257263 790.173035, 944.412292 785.941223, 944.802795 781.534912, 945.321777 777.529297, 945.411621 773.270508, 946.100159 769.387085, 946.645081 765.369202, 946.264832 760.745300, 947.141785 756.153076, 946.612244 751.851501, 947.091431 747.264709, 947.472412 742.138550, 947.071777 736.321289, 947.425293 730.433716, 948.442566 726.676147, 949.211060 722.379700, 950.291382 717.256104, 950.505432 713.439575, 951.337280 709.134521, 952.432678 703.904663, 952.939209 697.413269, 953.673401 692.056274, 953.945679 685.693420, 953.789673 680.529785, 953.931458 675.276062, 954.953857 668.291504, 956.881104 661.394043, 959.161316 656.638428, 961.555908 650.627930, 964.889099 644.446045, 968.311157 638.050964, 971.756958 633.017761, 974.269836 628.973267, 976.935364 625.913452, 979.057190 621.880371Z "/>
    </clipPath>
    <filter id="dropshadow">
      <feGaussianBlur in="SourceAlpha" stdDeviation="2"/>
      <feMerge>
        <feMergeNode/>
        <feMergeNode in="SourceGraphic"/>
      </feMerge>
    </filter>
  </defs>
  <g inkscape:label="rois" inkscape:groupmode="layer" id="rois" transform="translate(0,0)" style="display:inline;" class="display_layer">
    <g inkscape:label="shapes" inkscape:groupmode="layer" id="rois_shapes" transform="translate(0,0)" style="display:inline;" clip-path="url(#edgeclip)"/>
    <g inkscape:label="labels" inkscape:groupmode="layer" id="rois_labels" transform="translate(0,0)" style="display:inline;">
    </g>
  </g>
  <svg:g id="sulci" style="display:inline;" inkscape:label="sulci" inkscape:groupmode="layer" class="display_layer">
    <svg:g id="sulci_shapes" style="display:inline;" inkscape:label="shapes" inkscape:groupmode="layer" clip-path="url(#edgeclip)"/>
    <svg:g id="sulci_labels" style="display:inline;" inkscape:label="labels" inkscape:groupmode="layer"/>
  </svg:g>
  <svg:g id="cutouts" style="display:inline;" inkscape:label="cutouts" inkscape:groupmode="layer" class="display_layer">
    <svg:g id="cutouts_shapes" style="display:inline;" inkscape:label="shapes" inkscape:groupmode="layer" clip-path="url(#edgeclip)"/>
    <svg:g id="cutouts_labels" style="display:inline;" inkscape:label="labels" inkscape:groupmode="layer"/>
  </svg:g>
  <svg:g id="display" style="display:inline;" inkscape:label="display" inkscape:groupmode="layer" class="display_layer">
    <svg:g id="display_shapes" style="display:inline;" inkscape:label="shapes" inkscape:groupmode="layer" clip-path="url(#edgeclip)"/>
    <svg:g id="display_labels" style="display:inline;" inkscape:label="labels" inkscape:groupmode="layer"/>
  </svg:g>
</svg>
